HIERARCHY
ROOT root
{
	OFFSET	0	13.1	24.9
	CHANNELS 6  Xposition Yposition Zposition Xrotation Yrotation Zrotation
	JOINT spine_1
	{
		OFFSET	0	9.99999	0
		CHANNELS 3  Xrotation Yrotation Zrotation
		JOINT spine_2
		{
			OFFSET	0	112	-10
			CHANNELS 3  Xrotation Yrotation Zrotation
			JOINT spine_3
			{
				OFFSET	0	206.5	19.3
				CHANNELS 3  Xrotation Yrotation Zrotation
				JOINT spine_4
				{
					OFFSET	0	110.4	14.6
					CHANNELS 3  Xrotation Yrotation Zrotation
					JOINT neck_1
					{
						OFFSET	0	71.8	-50.3
						CHANNELS 3  Xrotation Yrotation Zrotation
						JOINT neck_2
						{
							OFFSET	0	86.2	-25.8
							CHANNELS 3  Xrotation Yrotation Zrotation
							JOINT head_ee
							{
								OFFSET	0	179.8	-8.7
								CHANNELS 3  Xrotation Yrotation Zrotation
								End Site
								{
									OFFSET	1	0	0
								}
							}
						}
					}
					JOINT left_clavicle
					{
						OFFSET	-43.2	22.4	-70.8
						CHANNELS 3  Xrotation Yrotation Zrotation
						JOINT left_shoulder
						{
							OFFSET	-93.9	-5.79999	48.7
							CHANNELS 3  Xrotation Yrotation Zrotation
							JOINT left_elbow
							{
								OFFSET	-291.4	-30.8	15.2
								CHANNELS 3  Xrotation Yrotation Zrotation
								JOINT left_lowarm_twist
								{
									OFFSET	-110.7	-3.89999	13.6
									CHANNELS 3  Xrotation Yrotation Zrotation
									JOINT left_hand
									{
										OFFSET	-110.7	-3.89999	13.6
										CHANNELS 3  Xrotation Yrotation Zrotation
										JOINT left_ee
										{
											OFFSET	-80.8	-5.10001	12.1
											CHANNELS 3  Xrotation Yrotation Zrotation
											End Site
											{
												OFFSET	1	0	0
											}
										}
									}
								}
							}
						}
					}
					JOINT right_clavicle
					{
						OFFSET	43.2	22.4	-70.8
						CHANNELS 3  Xrotation Yrotation Zrotation
						JOINT right_shoulder
						{
							OFFSET	93.9	-5.79999	48.7
							CHANNELS 3  Xrotation Yrotation Zrotation
							JOINT right_elbow
							{
								OFFSET	291.4	-30.8	15.2
								CHANNELS 3  Xrotation Yrotation Zrotation
								JOINT right_lowarm_twist
								{
									OFFSET	110.7	-3.89999	13.6
									CHANNELS 3  Xrotation Yrotation Zrotation
									JOINT right_hand
									{
										OFFSET	110.7	-3.89999	13.6
										CHANNELS 3  Xrotation Yrotation Zrotation
										JOINT right_ee
										{
											OFFSET	80.8	-5.10001	12.1
											CHANNELS 3  Xrotation Yrotation Zrotation
											End Site
											{
												OFFSET	1	0	0
											}
										}
									}
								}
							}
						}
					}
				}
			}
		}
	}
	JOINT left_hip
	{
		OFFSET	-82.8	-127.5	0.300001
		CHANNELS 3  Xrotation Yrotation Zrotation
		JOINT left_knee
		{
			OFFSET	-28.2	-396.7	2.2
			CHANNELS 3  Xrotation Yrotation Zrotation
			JOINT left_ankle
			{
				OFFSET	-11.7	-411.3	35.4
				CHANNELS 3  Xrotation Yrotation Zrotation
				JOINT left_toes
				{
					OFFSET	0	-60	-88.6
					CHANNELS 3  Xrotation Yrotation Zrotation
					JOINT left_foot_ee
					{
						OFFSET	-22.5	-16.5	-42.2
						CHANNELS 3  Xrotation Yrotation Zrotation
						End Site
						{
							OFFSET	1	0	0
						}
					}
				}
			}
		}
	}
	JOINT right_hip
	{
		OFFSET	82.8	-127.5	0.300001
		CHANNELS 3  Xrotation Yrotation Zrotation
		JOINT right_knee
		{
			OFFSET	28.2	-396.7	2.2
			CHANNELS 3  Xrotation Yrotation Zrotation
			JOINT right_ankle
			{
				OFFSET	11.7	-411.3	35.4
				CHANNELS 3  Xrotation Yrotation Zrotation
				JOINT right_toes
				{
					OFFSET	0	-60	-88.6
					CHANNELS 3  Xrotation Yrotation Zrotation
					JOINT right_foot_ee
					{
						OFFSET	22.5	-16.5	-42.2
						CHANNELS 3  Xrotation Yrotation Zrotation
						End Site
						{
							OFFSET	1	0	0
						}
					}
				}
			}
		}
	}
}
MOTION
Frames: 5
Frame Time: 0.02
3177.02 653.055 -1669.29 -7.62817229046 42.3213461354 6.94492900109 3.20916 0.322015 0.422207 3.20921 0.294497 0.441842 3.21148 0.222424 0.482161 3.21128 0.29578 0.440984 -17.6773 20.686 4.47199 -19.5722 37.3582 12.8575 -0.0 0.0 -0.0 -3.6682 18.4703 -3.3981 -30.3327 -22.8901 80.7228 0.408477 -11.4394 0.0409135 -19.3056 -1.06432 2.21564 1.99271 12.538 18.058 -0.0 0.0 -0.0 7.65532 28.3955 -13.4072 -1.04687 24.9738 -71.8616 2.14715 46.7603 -0.928358 7.40801 -0.201493 0.924179 1.34296 -21.8157 -16.8367 0.0 0.0 0.0 28.5332 3.38208 -13.5025 -8.10476 0.24788 1.2181 5.63443 17.4765 -0.823088 -14.4453 0.0 0.0 -0.0 0.0 -0.0 -10.1919 40.6412 4.39604 -21.2168 -0.279193 -3.22533 32.5144 -1.26461 4.16414 40.0905 -0.0 -0.0 0.0 0.0 0.0 
3177.02 653.055 -1669.29 -7.65298409606 42.523739201 6.98170935752 3.20916 0.322015 0.422207 3.20921 0.294497 0.441842 3.21148 0.222424 0.482161 3.21128 0.29578 0.440984 -17.6773 20.686 4.47199 -19.5722 37.3582 12.8575 -0.0 0.0 -0.0 -3.6682 18.4703 -3.3981 -30.3327 -22.8901 80.7228 0.408477 -11.4394 0.0409135 -19.3056 -1.06432 2.21564 1.99271 12.538 18.058 -0.0 0.0 -0.0 7.65532 28.3955 -13.4072 -1.04687 24.9738 -71.8616 2.14715 46.7603 -0.928358 7.40801 -0.201493 0.924179 1.34296 -21.8157 -16.8367 0.0 0.0 0.0 28.5332 3.38208 -13.5025 -8.10476 0.24788 1.2181 5.63443 17.4765 -0.823088 -14.4453 0.0 0.0 -0.0 0.0 -0.0 -10.1919 40.6412 4.39604 -21.2168 -0.279193 -3.22533 32.5144 -1.26461 4.16414 40.0905 -0.0 -0.0 0.0 0.0 0.0 
3177.02 653.055 -1669.29 -7.68103532206 42.7500522274 7.02312247814 3.20916 0.322015 0.422207 3.20921 0.294497 0.441842 3.21148 0.222424 0.482161 3.21128 0.29578 0.440984 -17.6773 20.686 4.47199 -19.5722 37.3582 12.8575 -0.0 0.0 -0.0 -3.6682 18.4703 -3.3981 -30.3327 -22.8901 80.7228 0.408477 -11.4394 0.0409135 -19.3056 -1.06432 2.21564 1.99271 12.538 18.058 -0.0 0.0 -0.0 7.65532 28.3955 -13.4072 -1.04687 24.9738 -71.8616 2.14715 46.7603 -0.928358 7.40801 -0.201493 0.924179 1.34296 -21.8157 -16.8367 0.0 0.0 0.0 28.5332 3.38208 -13.5025 -8.10476 0.24788 1.2181 5.63443 17.4765 -0.823088 -14.4453 0.0 0.0 -0.0 0.0 -0.0 -10.1919 40.6412 4.39604 -21.2168 -0.279193 -3.22533 32.5144 -1.26461 4.16414 40.0905 -0.0 -0.0 0.0 0.0 0.0 
3158.49889398 652.551 -1674.39395255 -7.91387852949 42.9315220419 7.36161328517 3.36772 0.321499 0.466769 3.3678 0.291146 0.48628 3.37025 0.21368 0.524952 3.36999 0.293903 0.484619 -18.5935 20.6024 5.71137 -20.5181 36.6635 14.2776 -0.0 0.0 -0.0 -3.66826 18.2129 -3.45341 -28.7701 -22.7094 80.1589 0.387354 -10.8623 0.0368283 -19.3128 -1.06485 2.21639 1.96467 12.2988 17.7904 -0.0 0.0 -0.0 7.55146 28.4051 -13.1782 -0.520617 25.4128 -72.8021 1.92955 43.702 -0.773819 7.63327 -0.205738 0.952641 1.06365 -22.3742 -15.3049 0.0 0.0 0.0 28.0482 3.85848 -13.0951 -9.02766 0.26511 1.35867 5.85854 17.8682 -0.856265 -13.921 0.0 0.0 -0.0 0.0 -0.0 -9.49563 41.7817 3.4899 -22.3934 -0.259536 -3.40481 32.8082 -0.677101 4.19757 39.9383 -0.0 -0.0 0.0 0.0 0.0 
3141.49935583 653.187 -1677.49049009 -7.82245640209 41.7584574243 7.88621785053 3.30672 0.644272 0.470118 3.30663 0.613052 0.510162 3.31216 0.527604 0.598108 3.31219 0.615441 0.507278 -18.6651 20.5504 4.40884 -20.7353 37.2413 13.1543 -0.0 0.0 -0.0 -3.65096 18.1748 -3.435 -27.0714 -22.5565 79.5693 0.385071 -10.7998 0.0363994 -18.071 -0.974347 2.08564 1.70618 9.84542 15.2133 -0.0 0.0 -0.0 7.44545 28.8144 -12.8992 -0.526479 26.359 -73.0056 1.7507 40.9297 -0.65338 8.6641 -0.223733 1.08309 1.21883 -21.6872 -16.0348 0.0 0.0 0.0 31.1925 3.01872 -14.3655 -20.4351 0.290212 3.1059 10.6685 18.1521 -1.53768 -11.7273 0.0 0.0 -0.0 0.0 -0.0 -10.8406 42.3957 4.00503 -21.8439 -0.269175 -3.32104 32.8964 -1.74248 4.20024 38.8334 -0.0 -0.0 0.0 0.0 0.0 
